<mxfile host="app.diagrams.net" agent="Mozilla/5.0 (Windows NT 10.0; Win64; x64) AppleWebKit/537.36 (KHTML, like Gecko) Chrome/134.0.0.0 Safari/537.36" version="26.0.11">
  <diagram id="C5RBs43oDa-KdzZeNtuy" name="Page-1">
    <mxGraphModel dx="1674" dy="738" grid="1" gridSize="10" guides="1" tooltips="1" connect="1" arrows="1" fold="1" page="1" pageScale="1" pageWidth="827" pageHeight="1169" math="0" shadow="0">
      <root>
        <mxCell id="WIyWlLk6GJQsqaUBKTNV-0" />
        <mxCell id="WIyWlLk6GJQsqaUBKTNV-1" parent="WIyWlLk6GJQsqaUBKTNV-0" />
        <mxCell id="-NL9oT2lz4U111GeXj-w-4" style="edgeStyle=orthogonalEdgeStyle;rounded=0;orthogonalLoop=1;jettySize=auto;html=1;exitX=0.5;exitY=1;exitDx=0;exitDy=0;entryX=0.5;entryY=0;entryDx=0;entryDy=0;" edge="1" parent="WIyWlLk6GJQsqaUBKTNV-1" source="-NL9oT2lz4U111GeXj-w-0" target="-NL9oT2lz4U111GeXj-w-2">
          <mxGeometry relative="1" as="geometry" />
        </mxCell>
        <mxCell id="-NL9oT2lz4U111GeXj-w-0" value="Student / Faculty" style="rounded=0;whiteSpace=wrap;html=1;" vertex="1" parent="WIyWlLk6GJQsqaUBKTNV-1">
          <mxGeometry x="130" y="60" width="120" height="60" as="geometry" />
        </mxCell>
        <mxCell id="-NL9oT2lz4U111GeXj-w-19" style="edgeStyle=orthogonalEdgeStyle;rounded=0;orthogonalLoop=1;jettySize=auto;html=1;" edge="1" parent="WIyWlLk6GJQsqaUBKTNV-1" source="-NL9oT2lz4U111GeXj-w-2" target="-NL9oT2lz4U111GeXj-w-18">
          <mxGeometry relative="1" as="geometry" />
        </mxCell>
        <mxCell id="-NL9oT2lz4U111GeXj-w-25" style="edgeStyle=orthogonalEdgeStyle;rounded=0;orthogonalLoop=1;jettySize=auto;html=1;exitX=1;exitY=1;exitDx=0;exitDy=0;entryX=0.5;entryY=0;entryDx=0;entryDy=0;" edge="1" parent="WIyWlLk6GJQsqaUBKTNV-1" source="-NL9oT2lz4U111GeXj-w-2" target="-NL9oT2lz4U111GeXj-w-24">
          <mxGeometry relative="1" as="geometry" />
        </mxCell>
        <mxCell id="-NL9oT2lz4U111GeXj-w-32" style="edgeStyle=orthogonalEdgeStyle;rounded=0;orthogonalLoop=1;jettySize=auto;html=1;exitX=1;exitY=0;exitDx=0;exitDy=0;entryX=0.5;entryY=0;entryDx=0;entryDy=0;" edge="1" parent="WIyWlLk6GJQsqaUBKTNV-1" source="-NL9oT2lz4U111GeXj-w-2" target="-NL9oT2lz4U111GeXj-w-31">
          <mxGeometry relative="1" as="geometry" />
        </mxCell>
        <mxCell id="-NL9oT2lz4U111GeXj-w-41" style="edgeStyle=orthogonalEdgeStyle;rounded=0;orthogonalLoop=1;jettySize=auto;html=1;exitX=0;exitY=1;exitDx=0;exitDy=0;entryX=0;entryY=0.5;entryDx=0;entryDy=0;" edge="1" parent="WIyWlLk6GJQsqaUBKTNV-1" source="-NL9oT2lz4U111GeXj-w-2" target="-NL9oT2lz4U111GeXj-w-39">
          <mxGeometry relative="1" as="geometry">
            <Array as="points">
              <mxPoint x="40" y="260" />
              <mxPoint x="40" y="585" />
            </Array>
          </mxGeometry>
        </mxCell>
        <mxCell id="-NL9oT2lz4U111GeXj-w-54" style="edgeStyle=orthogonalEdgeStyle;rounded=0;orthogonalLoop=1;jettySize=auto;html=1;entryX=0;entryY=0.5;entryDx=0;entryDy=0;" edge="1" parent="WIyWlLk6GJQsqaUBKTNV-1" source="-NL9oT2lz4U111GeXj-w-2" target="-NL9oT2lz4U111GeXj-w-50">
          <mxGeometry relative="1" as="geometry">
            <Array as="points">
              <mxPoint x="10" y="220" />
              <mxPoint x="10" y="690" />
            </Array>
          </mxGeometry>
        </mxCell>
        <mxCell id="-NL9oT2lz4U111GeXj-w-2" value="Acess Services" style="rounded=1;whiteSpace=wrap;html=1;" vertex="1" parent="WIyWlLk6GJQsqaUBKTNV-1">
          <mxGeometry x="130" y="200" width="120" height="60" as="geometry" />
        </mxCell>
        <mxCell id="-NL9oT2lz4U111GeXj-w-6" value="Acess request" style="text;html=1;align=center;verticalAlign=middle;resizable=0;points=[];autosize=1;strokeColor=none;fillColor=none;" vertex="1" parent="WIyWlLk6GJQsqaUBKTNV-1">
          <mxGeometry x="70" y="140" width="100" height="30" as="geometry" />
        </mxCell>
        <mxCell id="-NL9oT2lz4U111GeXj-w-8" value="" style="endArrow=classic;html=1;rounded=0;exitX=0.5;exitY=1;exitDx=0;exitDy=0;" edge="1" parent="WIyWlLk6GJQsqaUBKTNV-1" source="-NL9oT2lz4U111GeXj-w-2">
          <mxGeometry width="50" height="50" relative="1" as="geometry">
            <mxPoint x="390" y="410" as="sourcePoint" />
            <mxPoint x="190" y="310" as="targetPoint" />
          </mxGeometry>
        </mxCell>
        <mxCell id="-NL9oT2lz4U111GeXj-w-13" value="D1: Borrower Acount" style="strokeWidth=2;html=1;shape=mxgraph.flowchart.stored_data;whiteSpace=wrap;" vertex="1" parent="WIyWlLk6GJQsqaUBKTNV-1">
          <mxGeometry x="140" y="420" width="100" height="60" as="geometry" />
        </mxCell>
        <mxCell id="-NL9oT2lz4U111GeXj-w-14" value="Update Record" style="text;html=1;align=center;verticalAlign=middle;resizable=0;points=[];autosize=1;strokeColor=none;fillColor=none;" vertex="1" parent="WIyWlLk6GJQsqaUBKTNV-1">
          <mxGeometry x="70" y="380" width="100" height="30" as="geometry" />
        </mxCell>
        <mxCell id="-NL9oT2lz4U111GeXj-w-15" value="D2: Fines Database" style="strokeWidth=2;html=1;shape=mxgraph.flowchart.stored_data;whiteSpace=wrap;" vertex="1" parent="WIyWlLk6GJQsqaUBKTNV-1">
          <mxGeometry x="340" y="420" width="100" height="60" as="geometry" />
        </mxCell>
        <mxCell id="-NL9oT2lz4U111GeXj-w-17" value="Fines payment" style="text;html=1;align=center;verticalAlign=middle;resizable=0;points=[];autosize=1;strokeColor=none;fillColor=none;" vertex="1" parent="WIyWlLk6GJQsqaUBKTNV-1">
          <mxGeometry x="270" y="250" width="100" height="30" as="geometry" />
        </mxCell>
        <mxCell id="-NL9oT2lz4U111GeXj-w-18" value="Reserve course" style="rounded=1;whiteSpace=wrap;html=1;" vertex="1" parent="WIyWlLk6GJQsqaUBKTNV-1">
          <mxGeometry x="480" y="200" width="120" height="60" as="geometry" />
        </mxCell>
        <mxCell id="-NL9oT2lz4U111GeXj-w-20" value="Submit course reserve" style="text;html=1;align=center;verticalAlign=middle;resizable=0;points=[];autosize=1;strokeColor=none;fillColor=none;" vertex="1" parent="WIyWlLk6GJQsqaUBKTNV-1">
          <mxGeometry x="290" y="200" width="140" height="30" as="geometry" />
        </mxCell>
        <mxCell id="-NL9oT2lz4U111GeXj-w-21" value="Return book" style="rounded=1;whiteSpace=wrap;html=1;" vertex="1" parent="WIyWlLk6GJQsqaUBKTNV-1">
          <mxGeometry x="130" y="310" width="120" height="60" as="geometry" />
        </mxCell>
        <mxCell id="-NL9oT2lz4U111GeXj-w-22" style="edgeStyle=orthogonalEdgeStyle;rounded=0;orthogonalLoop=1;jettySize=auto;html=1;exitX=0.5;exitY=1;exitDx=0;exitDy=0;entryX=0.5;entryY=0;entryDx=0;entryDy=0;entryPerimeter=0;" edge="1" parent="WIyWlLk6GJQsqaUBKTNV-1" source="-NL9oT2lz4U111GeXj-w-21" target="-NL9oT2lz4U111GeXj-w-13">
          <mxGeometry relative="1" as="geometry" />
        </mxCell>
        <mxCell id="-NL9oT2lz4U111GeXj-w-23" value="Books query" style="text;html=1;align=center;verticalAlign=middle;resizable=0;points=[];autosize=1;strokeColor=none;fillColor=none;" vertex="1" parent="WIyWlLk6GJQsqaUBKTNV-1">
          <mxGeometry x="105" y="268" width="90" height="30" as="geometry" />
        </mxCell>
        <mxCell id="-NL9oT2lz4U111GeXj-w-24" value="Pay fine" style="rounded=1;whiteSpace=wrap;html=1;" vertex="1" parent="WIyWlLk6GJQsqaUBKTNV-1">
          <mxGeometry x="330" y="310" width="120" height="60" as="geometry" />
        </mxCell>
        <mxCell id="-NL9oT2lz4U111GeXj-w-26" style="edgeStyle=orthogonalEdgeStyle;rounded=0;orthogonalLoop=1;jettySize=auto;html=1;entryX=0.5;entryY=0;entryDx=0;entryDy=0;entryPerimeter=0;" edge="1" parent="WIyWlLk6GJQsqaUBKTNV-1" source="-NL9oT2lz4U111GeXj-w-24" target="-NL9oT2lz4U111GeXj-w-15">
          <mxGeometry relative="1" as="geometry" />
        </mxCell>
        <mxCell id="-NL9oT2lz4U111GeXj-w-27" value="&lt;span style=&quot;color: rgb(0, 0, 0); font-family: Helvetica; font-size: 12px; font-style: normal; font-variant-ligatures: normal; font-variant-caps: normal; font-weight: 400; letter-spacing: normal; orphans: 2; text-align: center; text-indent: 0px; text-transform: none; widows: 2; word-spacing: 0px; -webkit-text-stroke-width: 0px; white-space: nowrap; background-color: rgb(251, 251, 251); text-decoration-thickness: initial; text-decoration-style: initial; text-decoration-color: initial; display: inline !important; float: none;&quot;&gt;Update Record&lt;/span&gt;" style="text;whiteSpace=wrap;html=1;" vertex="1" parent="WIyWlLk6GJQsqaUBKTNV-1">
          <mxGeometry x="290" y="380" width="110" height="40" as="geometry" />
        </mxCell>
        <mxCell id="-NL9oT2lz4U111GeXj-w-28" value="D3: Course Reserves" style="strokeWidth=2;html=1;shape=mxgraph.flowchart.stored_data;whiteSpace=wrap;" vertex="1" parent="WIyWlLk6GJQsqaUBKTNV-1">
          <mxGeometry x="490" y="310" width="100" height="60" as="geometry" />
        </mxCell>
        <mxCell id="-NL9oT2lz4U111GeXj-w-29" style="edgeStyle=orthogonalEdgeStyle;rounded=0;orthogonalLoop=1;jettySize=auto;html=1;entryX=0.5;entryY=0;entryDx=0;entryDy=0;entryPerimeter=0;" edge="1" parent="WIyWlLk6GJQsqaUBKTNV-1" source="-NL9oT2lz4U111GeXj-w-18" target="-NL9oT2lz4U111GeXj-w-28">
          <mxGeometry relative="1" as="geometry" />
        </mxCell>
        <mxCell id="-NL9oT2lz4U111GeXj-w-30" value="Course update" style="text;html=1;align=center;verticalAlign=middle;resizable=0;points=[];autosize=1;strokeColor=none;fillColor=none;" vertex="1" parent="WIyWlLk6GJQsqaUBKTNV-1">
          <mxGeometry x="540" y="268" width="100" height="30" as="geometry" />
        </mxCell>
        <mxCell id="-NL9oT2lz4U111GeXj-w-37" style="edgeStyle=orthogonalEdgeStyle;rounded=0;orthogonalLoop=1;jettySize=auto;html=1;" edge="1" parent="WIyWlLk6GJQsqaUBKTNV-1" source="-NL9oT2lz4U111GeXj-w-31" target="-NL9oT2lz4U111GeXj-w-34">
          <mxGeometry relative="1" as="geometry" />
        </mxCell>
        <mxCell id="-NL9oT2lz4U111GeXj-w-31" value="Research Query" style="rounded=1;whiteSpace=wrap;html=1;" vertex="1" parent="WIyWlLk6GJQsqaUBKTNV-1">
          <mxGeometry x="660" y="200" width="120" height="60" as="geometry" />
        </mxCell>
        <mxCell id="-NL9oT2lz4U111GeXj-w-33" value="Query" style="text;html=1;align=center;verticalAlign=middle;resizable=0;points=[];autosize=1;strokeColor=none;fillColor=none;" vertex="1" parent="WIyWlLk6GJQsqaUBKTNV-1">
          <mxGeometry x="350" y="148" width="60" height="30" as="geometry" />
        </mxCell>
        <mxCell id="-NL9oT2lz4U111GeXj-w-34" value="D4: Research Database" style="strokeWidth=2;html=1;shape=mxgraph.flowchart.stored_data;whiteSpace=wrap;" vertex="1" parent="WIyWlLk6GJQsqaUBKTNV-1">
          <mxGeometry x="670" y="310" width="100" height="60" as="geometry" />
        </mxCell>
        <mxCell id="-NL9oT2lz4U111GeXj-w-38" value="Search" style="text;html=1;align=center;verticalAlign=middle;resizable=0;points=[];autosize=1;strokeColor=none;fillColor=none;" vertex="1" parent="WIyWlLk6GJQsqaUBKTNV-1">
          <mxGeometry x="730" y="268" width="60" height="30" as="geometry" />
        </mxCell>
        <mxCell id="-NL9oT2lz4U111GeXj-w-39" value="Technical Services" style="rounded=1;whiteSpace=wrap;html=1;" vertex="1" parent="WIyWlLk6GJQsqaUBKTNV-1">
          <mxGeometry x="130" y="555" width="120" height="60" as="geometry" />
        </mxCell>
        <mxCell id="-NL9oT2lz4U111GeXj-w-40" value="D5: Catalog Database" style="strokeWidth=2;html=1;shape=mxgraph.flowchart.stored_data;whiteSpace=wrap;" vertex="1" parent="WIyWlLk6GJQsqaUBKTNV-1">
          <mxGeometry x="330" y="555" width="100" height="60" as="geometry" />
        </mxCell>
        <mxCell id="-NL9oT2lz4U111GeXj-w-42" style="edgeStyle=orthogonalEdgeStyle;rounded=0;orthogonalLoop=1;jettySize=auto;html=1;exitX=1;exitY=0.5;exitDx=0;exitDy=0;entryX=0;entryY=0.5;entryDx=0;entryDy=0;entryPerimeter=0;" edge="1" parent="WIyWlLk6GJQsqaUBKTNV-1" source="-NL9oT2lz4U111GeXj-w-39" target="-NL9oT2lz4U111GeXj-w-40">
          <mxGeometry relative="1" as="geometry" />
        </mxCell>
        <mxCell id="-NL9oT2lz4U111GeXj-w-43" value="Catalog info" style="text;html=1;align=center;verticalAlign=middle;resizable=0;points=[];autosize=1;strokeColor=none;fillColor=none;" vertex="1" parent="WIyWlLk6GJQsqaUBKTNV-1">
          <mxGeometry x="15" y="230" width="90" height="30" as="geometry" />
        </mxCell>
        <mxCell id="-NL9oT2lz4U111GeXj-w-44" value="Search" style="text;html=1;align=center;verticalAlign=middle;resizable=0;points=[];autosize=1;strokeColor=none;fillColor=none;" vertex="1" parent="WIyWlLk6GJQsqaUBKTNV-1">
          <mxGeometry x="260" y="555" width="60" height="30" as="geometry" />
        </mxCell>
        <mxCell id="-NL9oT2lz4U111GeXj-w-47" style="edgeStyle=orthogonalEdgeStyle;rounded=0;orthogonalLoop=1;jettySize=auto;html=1;entryX=0.75;entryY=0;entryDx=0;entryDy=0;" edge="1" parent="WIyWlLk6GJQsqaUBKTNV-1" source="-NL9oT2lz4U111GeXj-w-45" target="-NL9oT2lz4U111GeXj-w-2">
          <mxGeometry relative="1" as="geometry">
            <Array as="points">
              <mxPoint x="520" y="140" />
              <mxPoint x="220" y="140" />
            </Array>
          </mxGeometry>
        </mxCell>
        <mxCell id="-NL9oT2lz4U111GeXj-w-45" value="External Libraries" style="rounded=0;whiteSpace=wrap;html=1;" vertex="1" parent="WIyWlLk6GJQsqaUBKTNV-1">
          <mxGeometry x="460" y="60" width="120" height="60" as="geometry" />
        </mxCell>
        <mxCell id="-NL9oT2lz4U111GeXj-w-48" value="Acess request" style="text;html=1;align=center;verticalAlign=middle;resizable=0;points=[];autosize=1;strokeColor=none;fillColor=none;" vertex="1" parent="WIyWlLk6GJQsqaUBKTNV-1">
          <mxGeometry x="290" y="100" width="100" height="30" as="geometry" />
        </mxCell>
        <mxCell id="-NL9oT2lz4U111GeXj-w-50" value="Interlibrary Loan" style="rounded=1;whiteSpace=wrap;html=1;" vertex="1" parent="WIyWlLk6GJQsqaUBKTNV-1">
          <mxGeometry x="130" y="660" width="120" height="60" as="geometry" />
        </mxCell>
        <mxCell id="-NL9oT2lz4U111GeXj-w-51" value="D6: ILL Requests" style="strokeWidth=2;html=1;shape=mxgraph.flowchart.stored_data;whiteSpace=wrap;" vertex="1" parent="WIyWlLk6GJQsqaUBKTNV-1">
          <mxGeometry x="330" y="660" width="120" height="60" as="geometry" />
        </mxCell>
        <mxCell id="-NL9oT2lz4U111GeXj-w-52" style="edgeStyle=orthogonalEdgeStyle;rounded=0;orthogonalLoop=1;jettySize=auto;html=1;entryX=0;entryY=0.5;entryDx=0;entryDy=0;entryPerimeter=0;" edge="1" parent="WIyWlLk6GJQsqaUBKTNV-1" source="-NL9oT2lz4U111GeXj-w-50" target="-NL9oT2lz4U111GeXj-w-51">
          <mxGeometry relative="1" as="geometry" />
        </mxCell>
        <mxCell id="-NL9oT2lz4U111GeXj-w-53" value="Loans" style="text;html=1;align=center;verticalAlign=middle;resizable=0;points=[];autosize=1;strokeColor=none;fillColor=none;" vertex="1" parent="WIyWlLk6GJQsqaUBKTNV-1">
          <mxGeometry x="260" y="658" width="60" height="30" as="geometry" />
        </mxCell>
        <mxCell id="-NL9oT2lz4U111GeXj-w-55" value="Loan request" style="text;html=1;align=center;verticalAlign=middle;resizable=0;points=[];autosize=1;strokeColor=none;fillColor=none;" vertex="1" parent="WIyWlLk6GJQsqaUBKTNV-1">
          <mxGeometry x="30" y="658" width="90" height="30" as="geometry" />
        </mxCell>
      </root>
    </mxGraphModel>
  </diagram>
</mxfile>
